<svg width="736.00390625px" height="108.3199981689453px" xmlns="http://www.w3.org/2000/svg" viewBox="-118.001953125 20.840000915527348 736.00390625 108.3199981689453" style="background: rgba(0, 0, 0, 0);" preserveAspectRatio="xMidYMid"><defs><filter id="editing-hole" x="-100%" y="-100%" width="300%" height="300%"><feFlood flood-color="#000000" result="black"></feFlood><feMorphology operator="dilate" radius="2" in="SourceGraphic" result="erode"></feMorphology><feGaussianBlur in="erode" stdDeviation="4" result="blur"></feGaussianBlur><feOffset in="blur" dx="2" dy="2" result="offset"></feOffset><feComposite operator="atop" in="offset" in2="black" result="merge"></feComposite><feComposite operator="in" in="merge" in2="SourceGraphic" result="inner-shadow"></feComposite></filter></defs><g filter="url(#editing-hole)"><g transform="translate(-14.170380592346191, 106.51705932617188)"><path d="M3.84 0L19.20 0L19.20-48L3.84-48L3.84 0ZM63.74 0L48.38 0L48.38-26.88L47.30-26.88L47.30-26.88Q46.27-26.88 45.34-26.82L45.34-26.82L45.34-26.82Q44.42-26.75 43.71-26.40L43.71-26.40L43.71-26.40Q43.01-26.05 42.62-25.34L42.62-25.34L42.62-25.34Q42.24-24.64 42.24-23.36L42.24-23.36L42.24 0L26.88 0L26.88-38.40L34.56-38.40L38.02-34.88L38.02-34.88Q42.69-39.55 50.30-39.55L50.30-39.55L50.30-39.55Q57.86-39.55 61.31-36.42L61.31-36.42L61.31-36.42Q66.11-39.55 72.19-39.55L72.19-39.55L72.19-39.55Q78.40-39.55 81.82-37.22L81.82-37.22L81.82-37.22Q85.25-34.88 85.25-30.72L85.25-30.72L85.25 0L69.89 0L69.89-26.88L68.80-26.88L68.80-26.88Q67.90-26.88 67.01-26.82L67.01-26.82L67.01-26.82Q66.11-26.75 65.44-26.46L65.44-26.46L65.44-26.46Q64.77-26.18 64.29-25.54L64.29-25.54L64.29-25.54Q63.81-24.90 63.74-23.81L63.74-23.81L63.74 0ZM110.66-39.55L110.66-39.55L110.66-39.55Q129.09-39.55 129.09-26.88L129.09-26.88L129.09 0L121.41 0L117.06-4.35L117.06-4.35Q115.90-3.07 114.34-2.05L114.34-2.05L114.34-2.05Q112.77-1.02 110.98-0.32L110.98-0.32L110.98-0.32Q109.18 0.38 107.33 0.77L107.33 0.77L107.33 0.77Q105.47 1.15 103.74 1.15L103.74 1.15L103.74 1.15Q100.48 1.15 97.89 0.48L97.89 0.48L97.89 0.48Q95.30-0.19 93.50-1.66L93.50-1.66L93.50-1.66Q91.71-3.14 90.75-5.57L90.75-5.57L90.75-5.57Q89.79-8 89.79-11.52L89.79-11.52L89.79-11.52Q89.79-25.34 110.66-25.34L110.66-25.34L113.73-25.34L113.73-28.10L113.73-28.10Q112.51-28.16 111.52-28.22L111.52-28.22L111.52-28.22Q110.53-28.29 109.70-28.29L109.70-28.29L109.70-28.29Q101.06-28.29 94.78-26.18L94.78-26.18L92.93-37.18L92.93-37.18Q100.61-39.55 110.66-39.55ZM105.28-13.18L105.28-13.18L105.28-10.05L108.48-10.05L108.48-10.05Q111.81-10.05 112.83-10.82L112.83-10.82L112.83-10.82Q113.73-11.65 113.73-12.80L113.73-12.80L113.73-16.45L110.59-16.45L110.59-16.45Q107.84-16.45 106.56-15.87L106.56-15.87L106.56-15.87Q105.28-15.30 105.28-13.18ZM133.95 10.37L133.95 10.37L135.94-1.09L135.94-1.09Q142.53 1.15 151.23 1.15L151.23 1.15L151.23 1.15Q152.51 1.15 153.44 1.12L153.44 1.12L153.44 1.12Q154.37 1.09 154.88 1.02L154.88 1.02L154.88-1.66L154.88-1.66Q151.42-1.66 149.25-1.82L149.25-1.82L149.25-1.82Q147.07-1.98 145.98-2.30L145.98-2.30L145.98-2.30Q143.81-2.88 143.23-3.46L143.23-3.46L143.23-3.46Q142.53-4.03 142.40-4.38L142.40-4.38L142.40-4.38Q142.27-4.74 142.27-5.44L142.27-5.44L144.58-12.03L144.58-12.03Q139.07-13.06 136.19-16.22L136.19-16.22L136.19-16.22Q133.31-19.39 133.31-26.11L133.31-26.11L133.31-26.11Q133.31-32.77 137.86-36.16L137.86-36.16L137.86-36.16Q142.40-39.55 152.58-39.55L152.58-39.55L152.58-39.55Q154.43-39.55 156.03-39.46L156.03-39.46L156.03-39.46Q157.63-39.36 159.10-39.10L159.10-39.10L165.82-44.22L173.89-36.48L169.47-31.36L169.47-31.36Q170.50-28.74 170.50-24.45L170.50-24.45L170.50-24.45Q170.50-21.44 169.79-19.20L169.79-19.20L169.79-19.20Q169.09-16.96 167.46-15.42L167.46-15.42L167.46-15.42Q165.82-13.89 163.20-13.02L163.20-13.02L163.20-13.02Q160.58-12.16 156.67-11.84L156.67-11.84L156.35-9.98L156.35-9.98Q160.51-9.73 163.39-9.18L163.39-9.18L163.39-9.18Q166.27-8.64 168.06-7.49L168.06-7.49L168.06-7.49Q169.86-6.34 170.66-4.54L170.66-4.54L170.66-4.54Q171.46-2.75 171.46 0L171.46 0L171.46 0Q171.46 4.61 169.60 7.17L169.60 7.17L169.60 7.17Q167.74 9.73 164.77 10.94L164.77 10.94L164.77 10.94Q161.79 12.16 158.05 12.42L158.05 12.42L158.05 12.42Q154.30 12.67 150.53 12.67L150.53 12.67L150.53 12.67Q142.91 12.67 133.95 10.37ZM147.78-26.11L147.78-26.11L147.78-21.12L150.14-21.12L150.14-21.12Q152.90-21.12 154.18-21.70L154.18-21.70L154.18-21.70Q155.46-22.27 155.46-24.32L155.46-24.32L155.46-29.31L153.02-29.31L153.02-29.31Q150.27-29.31 149.02-28.74L149.02-28.74L149.02-28.74Q147.78-28.16 147.78-26.11ZM192.13-13.06L192.13-13.06L192.13-10.37L192.13-10.37Q193.28-10.24 194.43-10.18L194.43-10.18L194.43-10.18Q195.58-10.11 196.74-10.11L196.74-10.11L196.74-10.11Q203.90-10.11 211.20-12.42L211.20-12.42L212.99-1.15L212.99-1.15Q204.35 1.15 195.97 1.15L195.97 1.15L195.97 1.15Q185.22 1.15 180.42-3.87L180.42-3.87L180.42-3.87Q175.62-8.90 175.62-19.20L175.62-19.20L175.62-19.20Q175.62-29.50 180.45-34.53L180.45-34.53L180.45-34.53Q185.28-39.55 195.97-39.55L195.97-39.55L195.97-39.55Q201.34-39.55 204.93-38.88L204.93-38.88L204.93-38.88Q208.51-38.21 210.72-36.64L210.72-36.64L210.72-36.64Q212.93-35.07 213.86-32.42L213.86-32.42L213.86-32.42Q214.78-29.76 214.78-25.73L214.78-25.73L214.78-25.73Q214.78-22.40 213.66-20L213.66-20L213.66-20Q212.54-17.60 209.92-16.06L209.92-16.06L209.92-16.06Q207.30-14.53 202.94-13.79L202.94-13.79L202.94-13.79Q198.59-13.06 192.13-13.06ZM192.13-25.09L192.13-25.09L192.13-21.95L195.26-21.95L195.26-21.95Q198.08-21.95 199.33-22.53L199.33-22.53L199.33-22.53Q200.58-23.10 200.58-25.22L200.58-25.22L200.58-28.35L197.44-28.35L197.44-28.35Q194.62-28.35 193.38-27.78L193.38-27.78L193.38-27.78Q192.13-27.20 192.13-25.09ZM224.26-36.86L224.26-36.86L224.26-36.86Q229.18-39.55 237.76-39.55L237.76-39.55L237.76-39.55Q246.40-39.55 253.57-37.18L253.57-37.18L251.78-26.75L251.78-26.75Q248.77-27.65 245.82-28.03L245.82-28.03L245.82-28.03Q242.88-28.42 239.81-28.42L239.81-28.42L239.81-28.42Q238.91-28.42 237.60-28.35L237.60-28.35L237.60-28.35Q236.29-28.29 234.62-28.10L234.62-28.10L234.62-25.66L234.62-25.66Q238.14-25.66 241.86-25.31L241.86-25.31L241.86-25.31Q245.57-24.96 248.61-23.65L248.61-23.65L248.61-23.65Q251.65-22.34 253.60-19.74L253.60-19.74L253.60-19.74Q255.55-17.15 255.55-12.67L255.55-12.67L255.55-12.67Q255.55-9.54 254.85-7.07L254.85-7.07L254.85-7.07Q254.14-4.61 252.67-3.14L252.67-3.14L252.67-3.14Q251.14-1.66 249.50-0.77L249.50-0.77L249.50-0.77Q247.87 0.13 245.25 0.51L245.25 0.51L245.25 0.51Q243.20 0.83 240.86 0.99L240.86 0.99L240.86 0.99Q238.53 1.15 235.84 1.15L235.84 1.15L235.84 1.15Q226.43 1.15 218.62-1.09L218.62-1.09L220.54-11.97L220.54-11.97Q223.81-11.01 227.26-10.50L227.26-10.50L227.26-10.50Q230.72-9.98 234.50-9.98L234.50-9.98L234.50-9.98Q236.22-9.98 237.79-10.05L237.79-10.05L237.79-10.05Q239.36-10.11 240.83-10.30L240.83-10.30L240.83-12.74L240.83-12.74Q234.69-12.74 230.56-13.54L230.56-13.54L230.56-13.54Q226.43-14.34 223.90-16L223.90-16L223.90-16Q221.38-17.66 220.32-20.35L220.32-20.35L220.32-20.35Q219.26-23.04 219.26-26.75L219.26-26.75L219.26-26.75Q219.26-34.18 224.26-36.86ZM304.70-14.14L304.70-14.14L304.70-16.19L300.80-16.19L300.80-27.97L319.30-27.97L319.30-2.30L319.30-2.30Q310.21 1.15 300.42 1.15L300.42 1.15L300.42 1.15Q293.70 1.15 289.31-0.45L289.31-0.45L289.31-0.45Q284.93-2.05 282.37-5.22L282.37-5.22L282.37-5.22Q279.81-8.38 278.82-13.09L278.82-13.09L278.82-13.09Q277.82-17.79 277.82-24.06L277.82-24.06L277.82-24.06Q277.82-30.72 279.04-35.49L279.04-35.49L279.04-35.49Q280.26-40.26 283.07-43.30L283.07-43.30L283.07-43.30Q285.89-46.34 290.56-47.74L290.56-47.74L290.56-47.74Q295.23-49.15 302.14-49.15L302.14-49.15L302.14-49.15Q303.68-49.15 305.76-48.99L305.76-48.99L305.76-48.99Q307.84-48.83 309.95-48.54L309.95-48.54L309.95-48.54Q312.06-48.26 313.95-47.90L313.95-47.90L313.95-47.90Q315.84-47.55 316.99-47.17L316.99-47.17L314.69-35.39L314.69-35.39Q311.55-35.90 308.74-36.19L308.74-36.19L308.74-36.19Q305.92-36.48 303.49-36.48L303.49-36.48L303.49-36.48Q298.43-36.48 296.38-35.71L296.38-35.71L296.38-35.71Q294.34-34.94 294.34-32.64L294.34-32.64L294.34-10.88L299.39-10.88L299.39-10.88Q302.21-10.88 303.46-11.49L303.46-11.49L303.46-11.49Q304.70-12.10 304.70-14.14ZM344.38-39.55L344.38-39.55L344.38-39.55Q362.82-39.55 362.82-26.88L362.82-26.88L362.82 0L355.14 0L350.78-4.35L350.78-4.35Q349.63-3.07 348.06-2.05L348.06-2.05L348.06-2.05Q346.50-1.02 344.70-0.32L344.70-0.32L344.70-0.32Q342.91 0.38 341.06 0.77L341.06 0.77L341.06 0.77Q339.20 1.15 337.47 1.15L337.47 1.15L337.47 1.15Q334.21 1.15 331.62 0.48L331.62 0.48L331.62 0.48Q329.02-0.19 327.23-1.66L327.23-1.66L327.23-1.66Q325.44-3.14 324.48-5.57L324.48-5.57L324.48-5.57Q323.52-8 323.52-11.52L323.52-11.52L323.52-11.52Q323.52-25.34 344.38-25.34L344.38-25.34L347.46-25.34L347.46-28.10L347.46-28.10Q346.24-28.16 345.25-28.22L345.25-28.22L345.25-28.22Q344.26-28.29 343.42-28.29L343.42-28.29L343.42-28.29Q334.78-28.29 328.51-26.18L328.51-26.18L326.66-37.18L326.66-37.18Q334.34-39.55 344.38-39.55ZM339.01-13.18L339.01-13.18L339.01-10.05L342.21-10.05L342.21-10.05Q345.54-10.05 346.56-10.82L346.56-10.82L346.56-10.82Q347.46-11.65 347.46-12.80L347.46-12.80L347.46-16.45L344.32-16.45L344.32-16.45Q341.57-16.45 340.29-15.87L340.29-15.87L340.29-15.87Q339.01-15.30 339.01-13.18ZM369.73-7.23L369.73-49.92L385.09-51.07L385.09-11.01L385.09-11.01Q386.30-10.75 387.26-10.62L387.26-10.62L387.26-10.62Q388.22-10.50 388.86-10.43L388.86-10.43L388.16 0.83L388.16 0.83Q378.37 0.83 375.17-0.32L375.17-0.32L375.17-0.32Q372.48-1.28 371.10-2.82L371.10-2.82L371.10-2.82Q369.73-4.35 369.73-7.23L369.73-7.23ZM393.47-7.23L393.47-49.92L408.83-51.07L408.83-11.01L408.83-11.01Q410.05-10.75 411.01-10.62L411.01-10.62L411.01-10.62Q411.97-10.50 412.61-10.43L412.61-10.43L411.90 0.83L411.90 0.83Q402.11 0.83 398.91-0.32L398.91-0.32L398.91-0.32Q396.22-1.28 394.85-2.82L394.85-2.82L394.85-2.82Q393.47-4.35 393.47-7.23L393.47-7.23ZM432.19-13.06L432.19-13.06L432.19-10.37L432.19-10.37Q433.34-10.24 434.50-10.18L434.50-10.18L434.50-10.18Q435.65-10.11 436.80-10.11L436.80-10.11L436.80-10.11Q443.97-10.11 451.26-12.42L451.26-12.42L453.06-1.15L453.06-1.15Q444.42 1.15 436.03 1.15L436.03 1.15L436.03 1.15Q425.28 1.15 420.48-3.87L420.48-3.87L420.48-3.87Q415.68-8.90 415.68-19.20L415.68-19.20L415.68-19.20Q415.68-29.50 420.51-34.53L420.51-34.53L420.51-34.53Q425.34-39.55 436.03-39.55L436.03-39.55L436.03-39.55Q441.41-39.55 444.99-38.88L444.99-38.88L444.99-38.88Q448.58-38.21 450.78-36.64L450.78-36.64L450.78-36.64Q452.99-35.07 453.92-32.42L453.92-32.42L453.92-32.42Q454.85-29.76 454.85-25.73L454.85-25.73L454.85-25.73Q454.85-22.40 453.73-20L453.73-20L453.73-20Q452.61-17.60 449.98-16.06L449.98-16.06L449.98-16.06Q447.36-14.53 443.01-13.79L443.01-13.79L443.01-13.79Q438.66-13.06 432.19-13.06ZM432.19-25.09L432.19-25.09L432.19-21.95L435.33-21.95L435.33-21.95Q438.14-21.95 439.39-22.53L439.39-22.53L439.39-22.53Q440.64-23.10 440.64-25.22L440.64-25.22L440.64-28.35L437.50-28.35L437.50-28.35Q434.69-28.35 433.44-27.78L433.44-27.78L433.44-27.78Q432.19-27.20 432.19-25.09ZM475.97 0L460.61 0L460.61-38.40L468.29-38.40L472.51-34.11L472.51-34.11Q477.12-38.34 483.90-39.55L483.90-39.55L484.80-25.02L484.80-25.02Q483.90-25.02 482.62-24.77L482.62-24.77L482.62-24.77Q481.34-24.51 480.03-24.13L480.03-24.13L480.03-24.13Q478.72-23.74 477.63-23.20L477.63-23.20L477.63-23.20Q476.54-22.66 475.97-21.95L475.97-21.95L475.97 0ZM502.34-3.52L502.21-3.97L494.14-3.97L485.57-38.40L500.93-38.40L505.15-13.44L505.92-13.44L510.14-38.40L525.50-38.40L515.90 0L515.90 0Q514.88 3.78 513.57 6.21L513.57 6.21L513.57 6.21Q512.26 8.64 510.53 10.08L510.53 10.08L510.53 10.08Q508.80 11.52 506.53 12.10L506.53 12.10L506.53 12.10Q504.26 12.67 501.25 12.67L501.25 12.67L486.34 12.67L486.34 2.69L493.57 1.28L493.57 1.28Q499.14 0 500.80-1.47L500.80-1.47L500.80-1.47Q501.25-1.86 501.63-2.37L501.63-2.37L501.63-2.37Q502.02-2.88 502.34-3.52L502.34-3.52Z" fill="#777777"></path></g></g><style>text {
  font-size: 64px;
  font-family: Arial Black;
  dominant-baseline: central;
  text-anchor: middle;
}</style></svg>